<svg id="Capa_1" enable-background="new 0 0 512 512" height="512" viewBox="0 0 512 512" width="512" xmlns="http://www.w3.org/2000/svg"><g><path d="m258.737 79.792c-74.688.027-140.242 115.864-140.273 205.14-.027 78.529 60.012 122.976 136.048 123.891s139.276-42.049 139.303-120.577c.032-92.69-60.39-208.481-135.078-208.454z" fill="#f1cd88"/><path d="m258.737 79.792c-9.739.004-19.32 1.992-28.624 5.618 96.553 29.313 144.911 115.959 144.911 202.835 0 69.358-72.437 110.965-141.977 119.108 6.981.886 14.148 1.381 21.465 1.469 76.036.915 139.276-42.049 139.303-120.577.032-92.689-60.39-208.48-135.078-208.453z" fill="#ebb34c"/><path d="m392.563 146.11c.525 3.039-.412 6.15-2.563 8.361l-14.952 15.366c-3.86 3.968-10.24 3.968-14.1 0l-23.219-23.87c-3.86-3.968-10.228-3.968-14.1 0l-23.219 23.87c-3.86 3.968-10.228 3.968-14.1 0l-23.219-23.87c-3.862-3.97-10.239-3.97-14.1 0l-23.219 23.87c-3.86 3.968-10.24 3.968-14.1 0l-23.231-23.87c-3.86-3.968-10.228-3.968-14.1 0l-23.219 23.87c-3.86 3.968-10.241 3.968-14.1 0l-16.062-16.5c-2.191-2.251-3.121-5.434-2.535-8.52 17.256-90.806 82.425-145.486 139.286-144.811 56.443.687 119.31 56.095 134.852 146.104z" fill="#f7f3f1"/><path d="m392.563 146.11c-15.542-90.009-78.409-145.417-134.852-146.104-5.951-.071-11.994.473-18.062 1.593 51.863 9.685 104.906 62.861 119.004 144.511.525 3.039-.412 6.15-2.563 8.361l-5.045 5.185 9.903 10.181c3.86 3.968 10.241 3.968 14.1 0l14.952-15.366c2.151-2.21 3.087-5.322 2.563-8.361z" fill="#ebe1dc"/><path d="m414.933 359.287c-1.08 89.468-73.445 153.766-161.737 152.7s-159.084-67.087-158.004-156.555c.125-10.189.749-20.08 1.833-29.66.69-6.1 8.123-8.687 12.405-4.288l11.779 12.1c4.375 4.498 11.607 4.498 15.982 0l26.318-27.056c4.389-4.498 11.607-4.498 15.982 0l26.332 27.056c4.375 4.498 11.607 4.498 15.982 0l26.318-27.056c4.377-4.5 11.605-4.5 15.982 0l26.318 27.056c4.389 4.498 11.607 4.498 15.982 0l26.318-27.056c4.389-4.498 11.607-4.498 15.982 0l26.318 27.056c4.375 4.498 11.607 4.498 15.982 0l10.201-10.483c4.314-4.433 11.833-1.778 12.42 4.38.981 10.265 1.434 20.872 1.307 31.806z" fill="#f7f3f1"/><path d="m413.628 327.481c-.587-6.157-8.106-8.813-12.42-4.38l-10.201 10.483c-2.843 2.923-6.89 3.934-10.578 3.058.469 7.385.683 14.929.594 22.645-1.001 82.924-63.244 144.216-142.644 151.891 4.878.47 9.818.749 14.818.809 88.292 1.066 160.657-63.232 161.737-152.7.126-10.934-.327-21.542-1.306-31.806z" fill="#ebe1dc"/><g fill="#655e67"><path d="m209.991 220.257c-4.267 0-7.726-3.459-7.726-7.726v-3.916c0-4.267 3.459-7.726 7.726-7.726s7.726 3.459 7.726 7.726v3.916c0 4.267-3.459 7.726-7.726 7.726z"/><path d="m302.009 220.257c-4.267 0-7.726-3.459-7.726-7.726v-3.916c0-4.267 3.459-7.726 7.726-7.726s7.726 3.459 7.726 7.726v3.916c0 4.267-3.459 7.726-7.726 7.726z"/></g><path d="m232.692 248.628 15.755 21.013c3.776 5.037 11.331 5.037 15.107 0l15.755-21.013c1.77-2.361 1.533-5.689-.587-7.743-15.147-14.672-30.295-14.672-45.442 0-2.121 2.054-2.359 5.382-.588 7.743z" fill="#e27c48"/><path d="m450.647 223.737c-.611-12.42-14.135-19.84-25.029-13.843l-55.541 30.576 5.15 47.683c6.782 5.498 14.683 6.24 22.09 4.713 19.658-4.051 37.179-17.431 46.263-35.328 5.273-10.388 7.639-22.171 7.067-33.801z" fill="#f1cd88"/><path d="m450.647 223.737c-.342-6.944-4.72-12.321-10.417-14.669-.377 9.597-2.743 19.114-7.091 27.682-9.084 17.897-26.605 31.277-46.263 35.328-2.672.551-5.408.802-8.132.642-2.718-.159-4.958 2.083-4.665 4.791l1.149 10.642c6.782 5.498 14.683 6.24 22.09 4.713 19.658-4.051 37.179-17.431 46.263-35.328 5.272-10.388 7.638-22.171 7.066-33.801z" fill="#ebb34c"/><path d="m61.353 223.737c.611-12.42 14.135-19.84 25.029-13.843l55.541 30.576-5.15 47.683c-6.782 5.498-14.683 6.24-22.09 4.713-19.658-4.051-37.179-17.431-46.263-35.328-5.273-10.388-7.639-22.171-7.067-33.801z" fill="#f1cd88"/></g></svg>