<svg id="Layer_1_1_" enable-background="new 0 0 64 64" height="512" 
viewBox="0 0 64 64" width="512" xmlns="http://www.w3.org/2000/svg">
    <title>fundamentals/the-browser/4학년</title>
    <desc>Created with Sketch.</desc>
    <defs></defs>
     <g id="fundamentals/the-browser/blink"></g>
<path d="m60.424 5.95c-1.205-1.468-2.732-.383-2.732-.383s.407-1.736-.692-2.531c-1-.723-3.004.643-3.004.643s-1.567-1.045-2.612-.723c-1.045.321.17 2.994.17 2.994l4.446 6.05 2.705.417c2.138-.784.594-3.345.594-3.345s2.157-1.865 1.125-3.122z" fill="#c12929"/><path d="m21.522 45v5.382c0 .397.235.756.599.916l3.253 1.426c.227.099.482.111.717.033l3.909-1.301-3-5.456z" fill="#e8bb94"/><path d="m54.871 14.983c-.264 0-.85 0-.85 0-2.018 0-3.776 2.553-3.904 4.679-.002.36.004.593.004.593s5.784-1.278 4.88-5.23c-.001 0-.048-.016-.13-.042z" fill="#c12929"/><path d="m22.121 51.298c-.364-.159-.599-.519-.599-.916l-2.522 10.618h4l2.374-8.277z" fill="#edbf36"/><path d="m57 12.073c-.585-.054-2 2.951-2 2.951l6 1.042s.904-3.538-4-3.993z" fill="#edbf36"/><path d="m14.251 60.109c3.314-2.193 2.812-6.646-.604-8.41-2.602-1.343-10.647.113-10.647 4.017 0 4.254 8.353 6.311 11.251 4.393z" fill="#f4c69d"/><path d="m41.695 11.31c-.455 1.155-.661 2.402-1.187 3.526-2.453 5.241-11.961 11.443-17.399 11.391-1.862-.018-3.682-1.402-3.975-3.271-.121-.774-2.069-6.107-3.524-7.835-2.451-2.909-5.267-3.164-8.767-3.599-1.475-.183-2.99.545-3.578 1.911-.265.617-.329 1.287-.202 1.924l1.032 4.643.007.017c-.692 1.184-1.102 2.554-1.102 4.025 0 2.647 1.291 4.987 3.272 6.443-.406 1.23-.482 2.611.654 4.236.949 1.358 2.423 2.316 4.076 2.318.012 2.504 1.194 4.859 3.198 6.362 1.289.967 2.731 1.685 4.222 2.284 1.348.542 6.688.653 7.704 1.789 1.096 1.225 1.829 2.829 3.286 3.695.572.34 1.219.536 1.871.668 1.534.312 3.156.163 4.715.163 1.683 0 2.756-1.844 3.691-2.97.879-1.058 2.219-2.474 3.517-3.036 5.614-2.431 7.203-6.728 8.004-13.189.385-3.1-.803-9.583-1.09-12.55-.214-2.209 1.691-5.271 3.901-5.271h.979l2-2.91c0-8.001-12.308-8.375-15.305-.764z" fill="#f4cdab"/><path d="m32 52 2 9h4l-2-9z" fill="#edbf36"/><path d="m51.21 29.975c-.801 6.461-2.391 10.758-8.004 13.189-1.297.562-2.638 1.978-3.517 3.036-.935 1.126-2.008 2.97-3.691 2.97-1.559 0-3.181.149-4.715-.163-.652-.133-1.299-.328-1.871-.668-1.456-.866-2.19-2.47-3.286-3.695-1.016-1.136-6.355-1.247-7.704-1.789-1.491-.599-2.933-1.317-4.222-2.284-2.004-1.503-3.186-3.858-3.198-6.362-1.654-.002-3.127-.96-4.076-2.318-.319-.456-.534-.891-.681-1.311-.378 1.206-.426 2.557.681 4.141.949 1.358 2.423 2.316 4.076 2.318.012 2.504 1.194 4.859 3.198 6.362 1.289.967 2.731 1.685 4.222 2.284 1.348.542 6.688.653 7.704 1.789 1.096 1.225 1.829 2.829 3.286 3.695.572.34 1.219.536 1.871.668 1.534.312 3.156.163 4.715.163 1.683 0 2.756-1.844 3.691-2.97.879-1.058 2.219-2.474 3.517-3.036 5.614-2.431 7.203-6.728 8.004-13.189.102-.82.092-1.881.019-3.047-.007.071-.011.149-.019.217z" fill="#f4c59c"/><path d="m14.251 57.279c-2.54 1.681-9.269.307-10.893-2.922-.229.414-.358.867-.358 1.359 0 4.254 8.353 6.311 11.251 4.393 2.011-1.331 2.609-3.493 2.01-5.383-.319.971-.979 1.871-2.01 2.553z" fill="#f4bd8e"/><path d="m7.926 17.75-.879-1.797c1.389-.679 2.947-.99 4.507-.895l-.12 1.996c-1.215-.072-2.428.168-3.508.696z" fill="#f4c59c"/><path d="" fill="none"/><path d="m41 62h-7c-.552 0-1-.448-1-1 0-.552.448-1 1-1h7c.552 0 1 .448 1 1 0 .552-.448 1-1 1z" fill="#edbf36"/><path d="m27 62h-8c-.552 0-1-.448-1-1 0-.552.448-1 1-1h8c.552 0 1 .448 1 1 0 .552-.448 1-1 1z" fill="#edbf36"/><circle cx="51.718" cy="10.354" r="1.282"/><g fill="#f4c59c"><path d="m34.509 30.093c-.847 0-1.308-.386-1.554-.748-.891-1.312.339-3.666 1.151-4.952l1.691 1.068c-.586.931-1.084 2.083-1.154 2.624.036-.004.077-.011.124-.02 1.789-.335 4.285-4.169 5.438-6.507l1.794.884c-.35.71-3.515 6.961-6.863 7.589-.229.043-.438.062-.627.062z"/><path d="m42.834 31.085c-.814 0-1.421-.261-1.809-.779-.796-1.064-.11-2.546.036-2.833l1.782.907-.891-.454.894.449c-.108.218-.194.528-.199.697.106.017.328.029.731-.046 2.586-.484 4.017-1.807 4.031-1.82l1.388 1.44c-.074.071-1.84 1.744-5.05 2.346-.329.063-.633.093-.913.093z"/></g></svg>